# This file uses centimeters as units for non-parametric coordinates.

mtllib iceberg4.mtl
g default
v -2.333930 -0.111684 2.602088
v 2.914547 -0.111684 1.319471
v -2.085472 0.111684 2.321211
v 2.834803 0.027984 1.196805
v -3.363682 0.111684 -2.071577
v 2.834803 0.027984 -2.071577
v -3.791992 -0.111684 -2.408793
v 2.914547 -0.111684 -2.408793
v 0.248762 0.111684 2.721617
v -0.424039 0.111684 -2.071577
v -0.438722 -0.111684 -2.408793
v 0.328746 -0.111684 3.058834
v 0.637495 0.111684 1.515781
v 1.045783 0.111684 -2.071577
v 1.237913 -0.111684 -2.408793
v 0.284983 -0.111684 0.954591
v -2.020077 0.111684 1.739298
v 0.186575 0.111684 2.090930
v -0.580893 0.111684 -1.601607
v -3.257612 0.111684 -1.590530
v 0.856794 0.111684 1.159913
v 1.182810 0.111684 -1.704572
v 2.617082 0.111684 0.813324
v 2.617082 0.111684 -1.796461
v -1.449946 2.022036 1.332441
v -0.109869 1.759384 1.769158
v -0.580893 1.242748 -1.601607
v -1.153502 1.918778 -1.590530
v 0.856794 1.509923 1.159913
v 1.182810 1.070907 -1.704572
v 2.617082 1.585419 0.813324
v 2.617082 0.941517 -1.796461
v -3.847005 0.111684 0.040091
v -4.343322 -0.111684 -0.000000
v -1.558492 -0.111684 -0.289763
v 0.517852 -0.111684 -0.642131
v 3.703957 -0.111684 -0.544661
v 3.526839 0.027984 -0.437386
v 3.406492 0.111684 -0.491568
v 3.406492 2.090887 -0.491568
v 1.019802 2.015391 -0.272329
v -0.580893 3.441865 0.418171
v -1.153502 4.117896 0.353334
v -3.808942 0.111684 0.095625
v 0.938298 1.662158 0.443792
v -0.106240 2.492042 0.918591
v -1.301724 2.961383 0.828992
v -2.914510 0.111684 0.917461
v -2.966238 0.111684 1.180651
v -3.338626 -0.111684 1.301044
v -0.791024 -0.111684 0.964809
v 0.401417 -0.111684 0.156230
v 3.309252 -0.111684 0.387405
v 3.180821 0.027984 0.379710
v 3.011787 0.111684 0.160878
v 3.011787 1.737654 0.160878
v 1.736938 1.585419 0.986619
v 1.975042 1.737654 0.302335
v 2.213147 2.090887 -0.381949
v 1.899946 0.941517 -1.750516
v 1.899946 0.111684 -1.750516
v 1.780694 0.111684 -2.071577
v 2.076230 -0.111684 -2.408793
v 2.110904 -0.111684 -0.593396
v 1.855335 -0.111684 0.271817
v 1.599765 -0.111684 1.137031
v 1.576550 0.111684 1.356293
v 1.736938 0.111684 0.986619
v 2.258514 0.741657 -1.773489
v 2.258514 0.111684 -1.773489
v 2.148149 0.111684 -2.071577
v 2.495389 -0.111684 -2.408793
v 2.907431 -0.111684 -0.569029
v 2.582294 -0.111684 0.329611
v 2.257156 -0.111684 1.228251
v 2.046077 0.111684 1.276549
v 2.177010 0.111684 0.899972
v 2.177010 1.509923 0.899972
v 2.493415 1.662158 0.231607
v 2.809819 2.015391 -0.436758
v 1.296866 1.377462 1.073266
v 1.456670 1.529697 0.373063
v 1.616474 1.882930 -0.327139
v 1.541378 0.741657 -1.727544
v 1.541378 0.111684 -1.727544
v 1.413238 0.111684 -2.071577
v 1.657071 -0.111684 -2.408793
v 1.314378 -0.111684 -0.617763
v 1.128376 -0.111684 0.214024
v 0.942374 -0.111684 1.045811
v 1.107022 0.111684 1.436037
v 1.296866 0.111684 1.073266
v 2.578242 0.856162 0.813324
v 2.146104 0.819095 0.899972
v 1.713965 0.856162 0.986619
v 1.281827 0.754058 1.073266
v 0.849688 0.819095 1.159913
v 0.046002 0.941577 1.930044
v -1.695393 1.070535 1.535869
v -2.061772 1.531742 0.873226
v -2.428151 2.099573 0.224480
v -2.157455 1.019837 -1.590530
v -0.562081 0.687915 -1.601607
v 1.169827 0.603544 -1.704572
v 1.521931 0.441887 -1.727544
v 1.874035 0.540015 -1.750516
v 2.226138 0.441887 -1.773489
v 2.578242 0.540015 -1.796461
v 3.353421 1.104340 -0.491568
v 2.965832 0.930907 0.160878
v 2.478425 0.480118 0.773936
v 2.062894 0.461243 0.855751
v 1.647364 0.480118 0.937566
v 1.231833 0.428128 1.019381
v 0.816302 0.461243 1.101196
v 0.113482 0.523609 1.904336
v -1.765551 0.589272 1.552229
v -2.363976 0.824109 0.851381
v -2.962402 1.113237 0.157094
v -2.571964 0.563457 -1.495864
v -0.541210 0.394450 -1.506323
v 1.124137 0.351489 -1.603546
v 1.462709 0.269177 -1.625237
v 1.801281 0.319142 -1.646928
v 2.139853 0.269177 -1.668619
v 2.478425 0.319142 -1.690310
v 3.223812 0.606485 -0.458187
v 2.851118 0.518176 0.157874
vt 0.375000 0.000000
vt 0.625000 0.000000
vt 0.375000 0.250000
vt 0.625000 0.250000
vt 0.375000 0.500000
vt 0.625000 0.500000
vt 0.375000 0.750000
vt 0.625000 0.750000
vt 0.375000 1.000000
vt 0.625000 1.000000
vt 0.875000 0.000000
vt 0.875000 0.250000
vt 0.125000 0.000000
vt 0.125000 0.250000
vt 0.500000 0.250000
vt 0.500000 0.500000
vt 0.500000 0.750000
vt 0.500000 0.000000
vt 0.500000 1.000000
vt 0.562500 0.250000
vt 0.562500 0.500000
vt 0.562500 0.750000
vt 0.562500 0.000000
vt 0.562500 1.000000
vt 0.375000 0.250000
vt 0.500000 0.250000
vt 0.500000 0.500000
vt 0.375000 0.500000
vt 0.562500 0.250000
vt 0.562500 0.500000
vt 0.625000 0.250000
vt 0.625000 0.500000
vt 0.375000 0.250000
vt 0.500000 0.250000
vt 0.500000 0.500000
vt 0.375000 0.500000
vt 0.562500 0.250000
vt 0.562500 0.500000
vt 0.625000 0.250000
vt 0.625000 0.500000
vt 0.250000 0.250000
vt 0.375000 0.375000
vt 0.250000 0.000000
vt 0.375000 0.875000
vt 0.500000 0.875000
vt 0.562500 0.875000
vt 0.625000 0.875000
vt 0.750000 0.000000
vt 0.625000 0.375000
vt 0.750000 0.250000
vt 0.625000 0.375000
vt 0.625000 0.375000
vt 0.562500 0.375000
vt 0.500000 0.375000
vt 0.375000 0.375000
vt 0.375000 0.375000
vt 0.562500 0.312500
vt 0.500000 0.312500
vt 0.375000 0.312500
vt 0.375000 0.312500
vt 0.312500 0.250000
vt 0.375000 0.312500
vt 0.312500 0.000000
vt 0.375000 0.937500
vt 0.500000 0.937500
vt 0.562500 0.937500
vt 0.625000 0.937500
vt 0.687500 0.000000
vt 0.625000 0.312500
vt 0.687500 0.250000
vt 0.625000 0.312500
vt 0.625000 0.312500
vt 0.593750 0.250000
vt 0.593750 0.312500
vt 0.593750 0.375000
vt 0.593750 0.500000
vt 0.593750 0.500000
vt 0.593750 0.500000
vt 0.593750 0.750000
vt 0.593750 0.875000
vt 0.593750 0.937500
vt 0.593750 0.000000
vt 0.593750 1.000000
vt 0.593750 0.250000
vt 0.593750 0.250000
vt 0.609375 0.500000
vt 0.609375 0.500000
vt 0.609375 0.500000
vt 0.609375 0.750000
vt 0.609375 0.875000
vt 0.609375 0.937500
vt 0.609375 0.000000
vt 0.609375 1.000000
vt 0.609375 0.250000
vt 0.609375 0.250000
vt 0.609375 0.250000
vt 0.609375 0.312500
vt 0.609375 0.375000
vt 0.578125 0.250000
vt 0.578125 0.312500
vt 0.578125 0.375000
vt 0.578125 0.500000
vt 0.578125 0.500000
vt 0.578125 0.500000
vt 0.578125 0.750000
vt 0.578125 0.875000
vt 0.578125 0.937500
vt 0.578125 0.000000
vt 0.578125 1.000000
vt 0.578125 0.250000
vt 0.578125 0.250000
vt 0.625000 0.250000
vt 0.609375 0.250000
vt 0.593750 0.250000
vt 0.578125 0.250000
vt 0.562500 0.250000
vt 0.500000 0.250000
vt 0.375000 0.250000
vt 0.375000 0.312500
vt 0.375000 0.375000
vt 0.375000 0.500000
vt 0.500000 0.500000
vt 0.562500 0.500000
vt 0.578125 0.500000
vt 0.593750 0.500000
vt 0.609375 0.500000
vt 0.625000 0.500000
vt 0.625000 0.375000
vt 0.625000 0.312500
vt 0.625000 0.250000
vt 0.609375 0.250000
vt 0.593750 0.250000
vt 0.578125 0.250000
vt 0.562500 0.250000
vt 0.500000 0.250000
vt 0.375000 0.250000
vt 0.375000 0.312500
vt 0.375000 0.375000
vt 0.375000 0.500000
vt 0.500000 0.500000
vt 0.562500 0.500000
vt 0.578125 0.500000
vt 0.593750 0.500000
vt 0.609375 0.500000
vt 0.625000 0.500000
vt 0.625000 0.375000
vt 0.625000 0.312500
vn -0.097006 0.819015 0.565512
vn 0.095091 0.762757 0.639655
vn 0.419776 0.580013 0.698121
vn -0.097006 0.819015 0.565512
vn 0.019869 0.628121 0.777862
vn 0.303191 0.695986 0.650906
vn 0.451869 0.651612 0.609276
vn 0.111098 0.541878 0.833082
vn 0.000000 0.833694 -0.552227
vn 0.000000 0.833694 -0.552227
vn 0.000000 0.833694 -0.552227
vn 0.000000 0.833694 -0.552227
vn 0.000000 -1.000000 0.000000
vn 0.000000 -1.000000 0.000000
vn 0.000000 -1.000000 0.000000
vn 0.000000 -1.000000 0.000000
vn 0.695325 0.655607 0.294452
vn 0.695325 0.655607 0.294452
vn 0.695325 0.655607 0.294452
vn 0.695325 0.655607 0.294452
vn -0.410417 0.855051 0.316933
vn -0.410417 0.855051 0.316933
vn -0.410417 0.855051 0.316933
vn -0.410417 0.855051 0.316933
vn 0.551372 0.734241 0.396079
vn 0.576366 0.705658 0.412127
vn 0.000000 0.833694 -0.552227
vn 0.000000 0.833694 -0.552227
vn 0.000000 -1.000000 -0.000000
vn 0.000000 -1.000000 0.000000
vn 0.478316 -0.828578 0.290986
vn 0.593415 -0.768648 0.238828
vn 0.055015 0.977401 0.204112
vn -0.023679 0.947151 0.319913
vn 0.000000 0.833694 -0.552227
vn 0.000000 0.833694 -0.552227
vn 0.000000 -1.000000 -0.000000
vn 0.000000 -1.000000 0.000000
vn -0.004837 -0.879982 0.474983
vn -0.005185 -0.860660 0.509154
vn 0.000000 1.000000 -0.000000
vn 0.000000 1.000000 -0.000000
vn 0.000000 1.000000 -0.000000
vn 0.000000 1.000000 -0.000000
vn 0.000000 1.000000 -0.000000
vn 0.000000 1.000000 -0.000000
vn 0.000000 1.000000 -0.000000
vn 0.000000 1.000000 -0.000000
vn 0.000000 1.000000 -0.000000
vn 0.000000 1.000000 0.000000
vn 0.000000 1.000000 -0.000000
vn 0.000000 1.000000 -0.000000
vn 0.000000 1.000000 0.000000
vn 0.000000 1.000000 0.000000
vn 0.000000 1.000000 0.000000
vn 0.000000 1.000000 0.000000
vn 0.153734 0.982107 0.108778
vn 0.266454 0.954445 0.134306
vn 0.298207 0.942592 0.150311
vn 0.165208 0.980091 0.110127
vn 0.000000 1.000000 -0.000000
vn 0.000000 1.000000 -0.000000
vn -0.148548 0.408596 0.900546
vn -0.148548 0.408596 0.900546
vn -0.172991 0.253822 0.951656
vn -0.173090 0.253114 0.951826
vn -0.012410 0.278486 -0.960360
vn 0.004408 0.246278 -0.969189
vn -0.005388 0.138773 -0.990310
vn -0.032891 0.027767 -0.999073
vn -0.576977 0.487899 0.655021
vn -0.568396 0.520138 0.637481
vn -0.638003 0.419170 0.645948
vn -0.633094 0.403063 0.660857
vn 0.752920 0.300865 0.585313
vn 0.752920 0.300865 0.585313
vn 0.749529 0.142947 0.646353
vn 0.748576 0.132653 0.649644
vn -0.042043 0.368501 -0.928676
vn -0.070966 0.001993 -0.997477
vn 0.196737 0.193672 0.961138
vn 0.186743 0.189150 0.964028
vn 0.194736 0.016632 0.980715
vn 0.186538 -0.007105 0.982422
vn 0.801199 0.336542 0.494792
vn 0.806321 0.309660 0.503941
vn 0.858941 0.052716 0.509355
vn 0.858194 0.051749 0.510711
vn -0.058185 0.455962 -0.888095
vn -0.078274 0.050571 -0.995648
vn -0.402461 0.910791 -0.092116
vn -0.411095 0.911530 0.010656
vn -0.414354 0.906842 0.077122
vn -0.402461 0.910791 -0.092116
vn 0.000000 -1.000000 -0.000000
vn 0.000000 -1.000000 0.000000
vn 0.000000 -1.000000 0.000000
vn 0.000000 -1.000000 0.000000
vn 0.000000 -1.000000 0.000000
vn 0.000000 -1.000000 0.000000
vn 0.000000 -1.000000 -0.000000
vn 0.000000 -1.000000 -0.000000
vn 0.607889 0.793477 -0.029412
vn 0.558082 0.817406 -0.142801
vn 0.518599 0.826333 -0.219613
vn 0.518599 0.826333 -0.219613
vn 0.351870 0.932278 -0.083937
vn 0.356324 0.934293 -0.011403
vn 0.276925 0.946903 -0.163359
vn 0.256682 0.953121 -0.160234
vn 0.994853 0.024531 -0.098316
vn 0.881859 0.444102 -0.158424
vn 0.745184 0.440460 -0.500695
vn 0.866000 0.086210 -0.492556
vn 0.338290 0.823600 -0.455239
vn -0.041007 0.953941 -0.297177
vn -0.046023 0.802252 -0.595208
vn 0.226371 0.741263 -0.631890
vn 0.583127 0.778487 -0.232209
vn 0.307106 0.694361 -0.650806
vn 0.702303 0.667406 -0.247669
vn 0.636492 0.516338 -0.572951
vn -0.640952 0.707671 -0.297292
vn -0.699254 0.714865 -0.003467
vn -0.787878 0.614717 0.037033
vn -0.708801 0.618005 -0.340103
vn 0.000000 1.000000 0.000000
vn 0.000000 1.000000 -0.000000
vn -0.203500 0.965311 0.163594
vn 0.105598 0.960794 0.256365
vn 0.048030 0.927077 0.371782
vn -0.079526 0.932841 0.351401
vn -0.056888 0.938249 -0.341251
vn -0.057499 0.937555 -0.343051
vn -0.122361 0.754684 -0.644578
vn -0.012979 0.753513 -0.657305
vn -0.069184 0.461491 -0.884443
vn -0.046962 0.475241 -0.878602
vn -0.058235 -0.045259 -0.997277
vn -0.072509 0.038478 -0.996625
vn 0.034937 0.997614 -0.059550
vn 0.000000 1.000000 -0.000000
vn 0.000000 1.000000 -0.000000
vn 0.050388 0.995030 -0.085886
vn 0.000000 0.833694 -0.552227
vn 0.000000 0.833694 -0.552227
vn 0.021366 0.855176 -0.517898
vn 0.052709 0.883512 -0.465433
vn 0.000000 -1.000000 -0.000000
vn 0.000000 -1.000000 -0.000000
vn 0.000000 -1.000000 -0.000000
vn 0.000000 -1.000000 -0.000000
vn 0.000000 -1.000000 -0.000000
vn 0.000000 -1.000000 -0.000000
vn 0.000000 -1.000000 0.000000
vn 0.000000 -1.000000 -0.000000
vn -0.007098 -0.717023 0.697014
vn -0.007243 -0.702865 0.711286
vn 0.000172 -0.015731 0.999876
vn -0.006359 -0.384962 0.922910
vn 0.000000 1.000000 0.000000
vn 0.000000 1.000000 0.000000
vn 0.036915 0.998282 0.045504
vn 0.061197 0.995271 0.075436
vn 0.198447 -0.002548 0.980108
vn 0.187493 0.182558 0.965152
vn 0.189380 0.178987 0.965453
vn 0.193644 0.013500 0.980979
vn -0.089205 0.450682 -0.888216
vn -0.023559 -0.018443 -0.999552
vn 0.067803 0.895795 -0.439265
vn 0.067803 0.895795 -0.439265
vn 0.000000 -1.000000 -0.000000
vn 0.000000 -1.000000 -0.000000
vn 0.000000 -1.000000 -0.000000
vn 0.000000 -1.000000 -0.000000
vn 0.004025 0.203774 0.979010
vn 0.004025 0.203774 0.979010
vn 0.186312 0.178106 0.966212
vn 0.197232 0.010334 0.980303
vn -0.128574 0.979271 0.156515
vn -0.085420 0.921847 0.378023
vn -0.243110 0.911074 -0.332930
vn -0.269741 0.773905 -0.572984
vn 0.195030 -0.008517 0.980760
vn 0.194962 -0.063498 0.978753
vn 0.198276 -0.050602 0.978839
vn 0.196061 -0.009629 0.980544
vn 0.195134 -0.006591 0.980754
vn 0.196912 -0.054259 0.978919
vn 0.195538 -0.004466 0.980686
vn 0.197711 -0.073276 0.977518
vn 0.187801 -0.058447 0.980467
vn 0.194161 -0.003272 0.980964
vn 0.655485 0.092205 0.749558
vn 0.664290 0.075429 0.743659
vn 0.626840 0.143482 0.765823
vn 0.626840 0.143482 0.765823
vn -0.220405 0.122600 0.967673
vn -0.219004 0.111276 0.969358
vn -0.230020 0.207428 0.950823
vn -0.230020 0.207428 0.950823
vn -0.687360 0.329189 0.647434
vn -0.735092 0.287430 0.614023
vn -0.728500 0.367742 0.577973
vn -0.649633 0.362103 0.668475
vn -0.801768 0.569042 -0.182646
vn -0.761493 0.579360 -0.290637
vn -0.704128 0.529015 -0.473653
vn -0.662373 0.540287 -0.518991
vn -0.040356 -0.111761 -0.992915
vn -0.026107 -0.139317 -0.989904
vn -0.007770 0.005265 -0.999956
vn -0.024860 0.003393 -0.999685
vn -0.069344 -0.114975 -0.990945
vn -0.059126 -0.000109 -0.998251
vn -0.069692 -0.211688 -0.974849
vn -0.064324 0.003390 -0.997923
vn -0.070895 -0.135264 -0.988270
vn -0.064147 0.004776 -0.997929
vn -0.051984 -0.211859 -0.975917
vn -0.064893 0.006023 -0.997874
vn -0.043260 -0.103124 -0.993727
vn -0.067370 0.006842 -0.997705
vn 0.996732 -0.061134 -0.052793
vn 0.984683 -0.129017 -0.117277
vn 0.873015 -0.189856 -0.449221
vn 0.872522 -0.057774 -0.485147
vn 0.863370 -0.047671 0.502315
vn 0.861562 -0.113101 0.494893
vn 0.856841 -0.126259 0.499881
vn 0.860333 -0.047495 0.507515
s 1
g pCube1
usemtl initialShadingGroup
f 1/1/1 12/18/2 9/15/3 3/3/4
s 2
f 25/33/5 26/34/6 46/58/7 47/59/8
s 3
f 5/5/9 10/16/10 11/17/11 7/7/12
s 4
f 50/64/13 51/65/14 12/19/15 1/9/16
s 5
f 2/2/17 53/68/18 54/70/19 4/4/20
s 6
f 50/63/21 1/1/22 3/3/23 49/61/24
s 2
f 26/34/6 29/37/25 45/57/26 46/58/7
s 3
f 11/17/11 10/16/10 14/21/27 15/22/28
s 4
f 12/19/15 51/65/14 52/66/29 16/24/30
s 1
f 9/15/3 12/18/2 16/23/31 13/20/32
s 2
f 29/37/25 81/99/33 82/100/34 45/57/26
s 3
f 15/22/28 14/21/27 86/104/35 87/105/36
s 4
f 16/24/30 52/66/29 89/107/37 90/109/38
s 1
f 13/20/32 16/23/31 90/108/39 91/110/40
s 7
f 3/3/41 9/15/42 18/26/43 17/25/44
f 10/16/45 5/5/46 20/28/47 19/27/48
f 48/60/49 49/62/50 3/3/41 17/25/44
f 9/15/42 13/20/51 21/29/52 18/26/43
f 14/21/53 10/16/45 19/27/48 22/30/54
f 13/20/51 91/110/55 92/111/56 21/29/52
f 4/4/57 54/69/58 55/71/59 23/31/60
f 86/104/61 14/21/53 22/30/54 85/103/62
s 10
f 17/25/63 18/26/64 116/135/65 117/136/66
s 11
f 19/27/67 20/28/68 120/139/69 121/140/70
s 12
f 48/60/71 17/25/72 117/136/73 118/137/74
s 13
f 18/26/75 21/29/76 115/134/77 116/135/78
s 11
f 22/30/79 19/27/67 121/140/70 122/141/80
s 14
f 21/29/81 92/111/82 114/133/83 115/134/84
s 15
f 23/31/85 55/71/86 128/147/87 111/130/88
s 11
f 85/103/89 22/30/79 122/141/80 123/142/90
s 6
f 7/13/91 34/43/92 33/41/93 5/14/94
s 4
f 7/7/95 11/17/96 35/45/97 34/44/98
f 36/46/99 35/45/97 11/17/96 15/22/100
f 88/106/101 36/46/99 15/22/100 87/105/102
s 5
f 38/50/103 37/48/104 8/11/105 6/12/106
s 7
f 39/51/107 38/49/108 6/6/109 24/32/110
s 15
f 127/146/111 39/51/112 24/32/113 126/145/114
s 2
f 41/53/115 83/101/116 84/102/117 30/38/118
f 42/54/119 41/53/115 30/38/118 27/35/120
f 43/55/121 42/54/119 27/35/120 28/36/122
s 12
f 20/28/123 44/56/124 119/138/125 120/139/126
s 7
f 5/5/46 33/42/127 44/56/128 20/28/47
s 2
f 46/58/7 45/57/26 41/53/115 42/54/119
f 47/59/8 46/58/7 42/54/119 43/55/121
s 12
f 44/56/124 48/60/71 118/137/74 119/138/125
s 7
f 44/56/128 33/42/127 49/62/50 48/60/49
s 6
f 34/43/92 50/63/21 49/61/24 33/41/93
s 4
f 34/44/98 35/45/97 51/65/14 50/64/13
f 52/66/29 51/65/14 35/45/97 36/46/99
f 89/107/37 52/66/29 36/46/99 88/106/101
s 5
f 54/70/19 53/68/18 37/48/104 38/50/103
s 7
f 55/71/59 54/69/58 38/49/108 39/51/107
s 15
f 128/147/87 55/71/86 39/51/112 127/146/111
s 2
f 45/57/26 82/100/34 83/101/116 41/53/115
f 57/73/129 78/96/130 79/97/131 58/74/132
f 59/75/133 58/74/132 79/97/131 80/98/134
f 60/76/135 59/75/133 80/98/134 69/86/136
s 11
f 70/87/137 61/77/138 124/143/139 125/144/140
s 7
f 71/88/141 62/78/142 61/77/143 70/87/144
s 3
f 63/79/145 62/78/146 71/88/147 72/89/148
s 4
f 73/90/149 64/80/150 63/79/151 72/89/152
f 74/91/153 65/81/154 64/80/150 73/90/149
f 66/83/155 65/81/154 74/91/153 75/93/156
s 1
f 67/84/157 66/82/158 75/92/159 76/94/160
s 7
f 68/85/161 67/84/162 76/94/163 77/95/164
s 14
f 113/132/165 68/85/166 77/95/167 112/131/168
s 11
f 24/32/169 70/87/137 125/144/140 126/145/170
s 7
f 6/6/109 71/88/141 70/87/144 24/32/110
s 3
f 72/89/148 71/88/147 6/6/171 8/8/172
s 4
f 37/47/173 73/90/149 72/89/152 8/8/174
f 53/67/175 74/91/153 73/90/149 37/47/173
f 75/93/156 74/91/153 53/67/175 2/10/176
s 1
f 76/94/160 75/92/159 2/2/177 4/4/178
s 7
f 77/95/164 76/94/163 4/4/57 23/31/60
s 14
f 112/131/168 77/95/167 23/31/179 111/130/180
s 2
f 79/97/131 78/96/130 31/39/181 56/72/182
f 80/98/134 79/97/131 56/72/182 40/52/183
f 69/86/136 80/98/134 40/52/183 32/40/184
f 81/99/33 57/73/129 58/74/132 82/100/34
f 83/101/116 82/100/34 58/74/132 59/75/133
f 84/102/117 83/101/116 59/75/133 60/76/135
s 11
f 61/77/138 85/103/89 123/142/90 124/143/139
s 7
f 62/78/142 86/104/61 85/103/62 61/77/143
s 3
f 87/105/36 86/104/35 62/78/146 63/79/145
s 4
f 64/80/150 88/106/101 87/105/102 63/79/151
f 65/81/154 89/107/37 88/106/101 64/80/150
f 90/109/38 89/107/37 65/81/154 66/83/155
s 1
f 91/110/40 90/108/39 66/82/158 67/84/157
s 7
f 92/111/56 91/110/55 67/84/162 68/85/161
s 14
f 114/133/83 92/111/82 68/85/166 113/132/165
f 78/96/185 94/113/186 93/112/187 31/39/188
f 57/73/189 95/114/190 94/113/186 78/96/185
f 81/99/191 96/115/192 95/114/190 57/73/189
f 97/116/193 96/115/192 81/99/191 29/37/194
s 13
f 98/117/195 97/116/196 29/37/197 26/34/198
s 10
f 99/118/199 98/117/200 26/34/201 25/33/202
s 12
f 100/119/203 99/118/204 25/33/205 47/59/206
f 101/120/207 100/119/203 47/59/206 43/55/208
f 102/121/209 101/120/207 43/55/208 28/36/210
s 11
f 103/122/211 102/121/212 28/36/213 27/35/214
f 104/123/215 103/122/211 27/35/214 30/38/216
f 105/124/217 104/123/215 30/38/216 84/102/218
f 106/125/219 105/124/217 84/102/218 60/76/220
f 107/126/221 106/125/219 60/76/220 69/86/222
f 108/127/223 107/126/221 69/86/222 32/40/224
s 15
f 40/52/225 109/128/226 108/127/227 32/40/228
f 56/72/229 110/129/230 109/128/226 40/52/225
f 93/112/231 110/129/230 56/72/229 31/39/232
s 14
f 94/113/186 112/131/168 111/130/180 93/112/187
f 95/114/190 113/132/165 112/131/168 94/113/186
f 96/115/192 114/133/83 113/132/165 95/114/190
f 115/134/84 114/133/83 96/115/192 97/116/193
s 13
f 116/135/78 115/134/77 97/116/196 98/117/195
s 10
f 117/136/66 116/135/65 98/117/200 99/118/199
s 12
f 118/137/74 117/136/73 99/118/204 100/119/203
f 119/138/125 118/137/74 100/119/203 101/120/207
f 120/139/126 119/138/125 101/120/207 102/121/209
s 11
f 121/140/70 120/139/69 102/121/212 103/122/211
f 122/141/80 121/140/70 103/122/211 104/123/215
f 123/142/90 122/141/80 104/123/215 105/124/217
f 124/143/139 123/142/90 105/124/217 106/125/219
f 125/144/140 124/143/139 106/125/219 107/126/221
f 126/145/170 125/144/140 107/126/221 108/127/223
s 15
f 109/128/226 127/146/111 126/145/114 108/127/227
f 110/129/230 128/147/87 127/146/111 109/128/226
f 111/130/88 128/147/87 110/129/230 93/112/231
