# This file uses centimeters as units for non-parametric coordinates.

mtllib iceberg7.mtl
g default
v -14.153598 0.000000 -3.868237
v -1.650461 0.000000 6.929937
v -14.153598 7.049166 -3.868237
v 2.613095 6.003767 5.211410
v 1.345575 7.182185 -14.839724
v 8.141995 4.302292 1.020518
v 1.345572 0.000000 -14.839727
v 11.551435 0.105360 0.624244
v -10.434195 7.397252 -3.617093
v 1.920456 6.473645 4.312829
v 7.729281 6.122441 -0.710447
v 0.854049 7.582383 -14.588581
v -8.447397 9.494299 -3.960279
v 1.628921 9.813842 1.752118
v 7.690792 8.903347 -0.477215
v -0.299458 10.476642 -13.148647
v -7.106034 13.011189 -3.927207
v 0.428129 14.672220 -0.398671
v 5.650023 13.155274 -0.940932
v -0.589778 14.102426 -10.358397
v -3.215436 16.063274 -4.694159
v 0.589002 16.204210 -1.080862
v 3.052574 15.874183 -3.304534
v 0.919130 16.739665 -7.595316
v -0.954284 20.695592 -4.180056
v -0.013154 20.533761 -2.999519
v 2.099793 20.527776 -4.325703
v 0.521718 21.024106 -5.187432
v 0.405186 22.393232 -3.802575
v 0.619748 22.417648 -3.634413
v 0.789743 22.546821 -3.711408
v 0.564985 22.442834 -3.894656
v -2.914605 9.914266 -2.073068
v -2.615755 13.903840 -3.722214
v -1.858111 16.139014 -2.874177
v -0.436262 20.608623 -3.637340
v 0.522029 22.406352 -3.713587
v 0.724774 22.498718 -3.812367
v 1.609486 20.757375 -5.378451
v 3.444973 16.274549 -7.473933
v 4.474295 13.593419 -7.282626
v 5.591019 9.631141 -8.204350
v 6.271477 6.797799 -8.919937
v 7.077255 5.555074 -9.127129
v 10.157230 0.105360 -8.116957
v -3.979361 0.000000 1.368262
v -4.429440 6.098703 -3.484387
v -3.337478 7.122287 -3.287438
v 6.846442 5.276854 3.206321
v 5.877594 6.395539 2.652617
v 4.070994 9.588339 1.539396
v 3.120885 13.910332 0.344174
v 1.744312 16.038453 -2.271844
v 0.640304 20.530755 -3.271980
v 0.788009 22.482526 -3.607063
v 0.615995 22.741451 -3.748296
v 0.433158 22.418145 -3.944587
v -0.369278 20.860589 -4.695283
v -1.798364 16.402992 -6.911779
v -5.351909 13.559264 -9.628602
v -5.873757 9.987682 -11.046470
v -6.170160 7.490234 -11.967391
v -7.774617 7.115975 -12.218534
v -7.774618 0.000000 -12.218536
v 2.073644 0.000000 -3.195785
v 11.178316 0.105360 4.554651
v -4.703009 3.187546 -1.686224
v -13.331656 3.207169 -3.807684
v -7.404268 3.236195 -11.708302
v 1.111423 3.264961 -14.155755
v 8.752717 2.205658 -8.249078
v 10.884264 1.305959 0.305455
v 9.162223 2.084783 3.435719
v 2.312754 3.693350 6.572998
vt 0.375000 0.000000
vt 0.625000 0.000000
vt 0.375000 0.250000
vt 0.625000 0.250000
vt 0.375000 0.500000
vt 0.625000 0.500000
vt 0.375000 0.750000
vt 0.625000 0.750000
vt 0.375000 1.000000
vt 0.625000 1.000000
vt 0.875000 0.000000
vt 0.875000 0.250000
vt 0.125000 0.000000
vt 0.125000 0.250000
vt 0.375000 0.250000
vt 0.625000 0.250000
vt 0.625000 0.500000
vt 0.375000 0.500000
vt 0.375000 0.250000
vt 0.625000 0.250000
vt 0.625000 0.500000
vt 0.375000 0.500000
vt 0.375000 0.250000
vt 0.625000 0.250000
vt 0.625000 0.500000
vt 0.375000 0.500000
vt 0.375000 0.250000
vt 0.625000 0.250000
vt 0.625000 0.500000
vt 0.375000 0.500000
vt 0.375000 0.250000
vt 0.625000 0.250000
vt 0.625000 0.500000
vt 0.375000 0.500000
vt 0.375000 0.250000
vt 0.625000 0.250000
vt 0.625000 0.500000
vt 0.375000 0.500000
vt 0.509352 0.250000
vt 0.509352 0.250000
vt 0.509352 0.250000
vt 0.509352 0.250000
vt 0.509352 0.250000
vt 0.509352 0.500000
vt 0.509352 0.500000
vt 0.509352 0.500000
vt 0.509352 0.500000
vt 0.509352 0.500000
vt 0.509352 0.500000
vt 0.509352 0.500000
vt 0.509352 0.750000
vt 0.509352 0.000000
vt 0.509352 1.000000
vt 0.509352 0.250000
vt 0.509352 0.250000
vt 0.625000 0.375563
vt 0.750563 0.250000
vt 0.625000 0.375563
vt 0.625000 0.375563
vt 0.625000 0.375563
vt 0.625000 0.375563
vt 0.625000 0.375563
vt 0.625000 0.375563
vt 0.509352 0.375563
vt 0.375000 0.375563
vt 0.375000 0.375563
vt 0.375000 0.375563
vt 0.375000 0.375563
vt 0.375000 0.375563
vt 0.375000 0.375563
vt 0.249437 0.250000
vt 0.375000 0.375563
vt 0.249437 0.000000
vt 0.375000 0.874437
vt 0.509352 0.874437
vt 0.625000 0.874437
vt 0.750563 0.000000
vt 0.509352 0.116325
vt 0.375000 0.116325
vt 0.249437 0.116325
vt 0.125000 0.116325
vt 0.375000 0.633675
vt 0.509352 0.633675
vt 0.625000 0.633675
vt 0.875000 0.116325
vt 0.750563 0.116325
vt 0.625000 0.116325
vn -0.332982 0.404013 0.851996
vn -0.601836 0.523559 0.603058
vn -0.471227 0.420219 0.775475
vn -0.233695 0.336925 0.912068
vn -0.826804 0.447398 0.340927
vn -0.693068 0.404622 0.596605
vn -0.321250 0.936711 0.139181
vn -0.690283 0.701682 -0.176496
vn 0.634245 0.099958 -0.766643
vn 0.792569 0.398769 -0.461323
vn 0.766410 0.407111 -0.496867
vn 0.597343 0.260459 -0.758513
vn 0.002351 -0.999997 -0.000147
vn 0.005203 -0.999986 0.000378
vn 0.002620 -0.999996 0.000964
vn -0.000000 -1.000000 0.000000
vn 0.277355 0.151629 0.948727
vn 0.446866 0.327300 0.832578
vn 0.486198 0.358169 0.797074
vn 0.331230 0.223754 0.916636
vn -0.568427 0.198459 -0.798439
vn -0.781745 0.197067 -0.591642
vn -0.797029 0.001461 -0.603939
vn -0.577899 0.000536 -0.816108
vn -0.052147 -0.140092 0.988764
vn -0.303067 0.062256 0.950934
vn -0.597474 0.331947 0.729957
vn -0.052147 -0.140092 0.988764
vn 0.310020 0.797468 0.517622
vn 0.626808 0.678550 0.382990
vn 0.533985 0.726814 0.431975
vn 0.310020 0.797468 0.517622
vn 0.880435 0.425217 -0.209822
vn 0.620724 0.622952 -0.476060
vn 0.620724 0.622952 -0.476060
vn 0.843280 0.468600 -0.263237
vn -0.132644 0.986260 -0.098473
vn -0.127452 0.989246 -0.071758
vn -0.127452 0.989246 -0.071758
vn -0.160443 0.954865 -0.249983
vn -0.171171 -0.090455 0.981080
vn -0.500251 0.041064 0.864906
vn -0.603051 0.087600 0.792879
vn -0.171171 -0.090455 0.981080
vn 0.260537 0.535461 0.803369
vn 0.514829 0.425964 0.743979
vn 0.418670 0.473659 0.774830
vn 0.260537 0.535461 0.803369
vn 0.838619 0.320107 -0.440738
vn 0.647133 0.441197 -0.621743
vn 0.647133 0.441197 -0.621743
vn 0.838949 0.319823 -0.440316
vn -0.617013 0.417261 -0.667224
vn -0.821814 0.452010 -0.346857
vn -0.821814 0.452010 -0.346857
vn -0.651483 0.425893 -0.627842
vn -0.229289 0.252484 0.940042
vn -0.507879 0.247683 0.825053
vn -0.506827 0.247749 0.825680
vn -0.229289 0.252484 0.940042
vn -0.032687 0.335486 0.941478
vn 0.320892 0.344971 0.882056
vn 0.207781 0.346812 0.914630
vn -0.032687 0.335486 0.941478
vn 0.792701 0.420976 -0.440914
vn 0.564216 0.444863 -0.695526
vn 0.564216 0.444863 -0.695526
vn 0.781188 0.423915 -0.458302
vn -0.657014 0.436942 -0.614341
vn -0.911370 0.297725 -0.284192
vn -0.911370 0.297725 -0.284192
vn -0.681811 0.429002 -0.592529
vn -0.356117 0.299502 0.885144
vn -0.461621 0.255625 0.849448
vn -0.579240 0.198264 0.790679
vn -0.356117 0.299502 0.885144
vn 0.245942 0.692673 0.678024
vn 0.407184 0.780193 0.474868
vn 0.513308 0.560732 0.649689
vn 0.432745 0.547397 0.716302
vn 0.773337 0.549169 -0.316802
vn 0.400613 0.369346 -0.838506
vn 0.400613 0.369346 -0.838506
vn 0.689947 0.518008 -0.505610
vn -0.480796 0.821407 -0.306798
vn -0.590093 0.793781 -0.147315
vn -0.590093 0.793781 -0.147314
vn -0.410258 0.823166 -0.392538
vn -0.742257 0.316509 0.590657
vn -0.683783 0.300062 0.665134
vn -0.680314 0.299057 0.669133
vn -0.742257 0.316509 0.590657
vn 0.595932 0.321997 0.735651
vn 0.608206 0.352879 0.711029
vn 0.795929 0.452791 -0.401842
vn 0.078510 0.471244 -0.878502
vn 0.078510 0.471244 -0.878502
vn 0.690456 0.487358 -0.534559
vn -0.569666 0.478765 -0.668030
vn -0.758097 0.449654 -0.472336
vn -0.758097 0.449654 -0.472336
vn -0.536936 0.480079 -0.693703
vn -0.635729 0.362832 0.681324
vn -0.674820 0.388988 0.627141
vn -0.690324 0.399458 0.603229
vn -0.635729 0.362832 0.681324
vn 0.268150 0.184539 0.945537
vn 0.502933 0.147752 0.851603
vn 0.556644 0.137024 0.819373
vn 0.268150 0.184539 0.945537
vn 0.543582 0.686739 -0.482606
vn 0.050523 0.677388 -0.733889
vn 0.050523 0.677388 -0.733889
vn 0.560897 0.682481 -0.468631
vn -0.558306 0.604636 -0.568076
vn -0.665355 0.597157 -0.448002
vn -0.665355 0.597157 -0.448002
vn -0.517018 0.603535 -0.606991
vn -0.677942 0.230659 0.697991
vn -0.677942 0.230659 0.697991
vn -0.686382 0.135903 0.714430
vn -0.686382 0.135903 0.714430
vn -0.619722 0.281064 0.732767
vn -0.619722 0.281064 0.732767
vn -0.717100 0.417701 0.557937
vn -0.717100 0.417701 0.557937
vn -0.426927 0.295619 0.854601
vn -0.218269 0.501250 0.837322
vn 0.755400 0.597224 -0.269619
vn 0.755400 0.597224 -0.269619
vn 0.956870 0.290015 0.017046
vn 0.956870 0.290015 0.017046
vn 0.833965 0.551518 -0.018153
vn 0.833965 0.551518 -0.018153
vn 0.914215 0.361616 -0.182879
vn 0.914215 0.361616 -0.182879
vn 0.966600 0.157897 -0.201875
vn 0.966600 0.157897 -0.201875
vn 0.940294 0.326873 -0.094877
vn 0.940294 0.326873 -0.094877
vn 0.830689 0.547321 -0.101956
vn 0.846784 0.511506 -0.146010
vn 0.008627 -0.999962 0.000949
vn 0.006452 -0.999976 0.002373
vn -0.703615 0.487651 0.516838
vn -0.699194 0.553519 0.452486
vn -0.703880 0.447400 0.551712
vn -0.703880 0.447400 0.551712
vn -0.744249 0.158397 0.648848
vn -0.744249 0.158397 0.648848
vn 0.754704 0.585263 0.296462
vn 0.754704 0.585263 0.296462
vn 0.693606 0.310018 0.650230
vn 0.693606 0.310018 0.650230
vn 0.505401 0.330524 0.797072
vn 0.505401 0.330524 0.797072
vn 0.442758 0.792976 0.418515
vn 0.530033 0.607263 0.591859
vn 0.585980 0.298291 0.753426
vn 0.613064 0.124600 0.780146
vn 0.613064 0.124600 0.780146
vn 0.470825 0.499219 -0.727395
vn 0.750466 0.635635 -0.181023
vn 0.292820 0.380022 -0.877405
vn -0.409048 0.592635 -0.693876
vn -0.409048 0.592635 -0.693876
vn -0.331597 0.471415 -0.817197
vn -0.331597 0.471415 -0.817197
vn -0.203584 0.779854 -0.591930
vn -0.203584 0.779854 -0.591930
vn -0.275415 0.491802 -0.826001
vn -0.275415 0.491802 -0.826001
vn -0.344695 0.330002 -0.878797
vn -0.344695 0.330002 -0.878797
vn -0.217117 0.731331 -0.646541
vn -0.217117 0.731331 -0.646541
vn -0.272014 0.179366 -0.945429
vn -0.275938 0.000669 -0.961175
vn 0.005961 -0.999982 -0.000373
vn 0.007938 -0.999968 -0.000571
vn 0.011489 -0.999934 -0.000926
vn 0.724465 0.674833 0.140538
vn 0.740610 0.648047 0.177572
vn -0.393670 0.349899 0.850055
vn -0.117569 0.254642 0.959862
vn -0.785761 -0.165383 -0.596010
vn -0.569644 -0.166503 -0.804850
vn -0.272337 -0.150320 -0.950388
vn 0.651646 -0.033638 -0.757777
vn 0.801169 0.219368 -0.556781
vn 0.819316 0.568469 -0.074598
vn 0.540781 0.459197 0.704765
vn 0.761830 0.604383 0.233101
vn 0.453822 0.396905 0.797817
vn -0.702403 0.423423 0.572139
s 1
g pCube1
usemtl initialShadingGroup
f 1/1/1 46/52/2 67/78/3 68/79/4
s 2
f 29/35/5 37/43/6 56/64/7 57/65/8
s 3
f 70/82/9 71/83/10 45/51/11 7/7/12
s 4
f 64/74/13 65/75/14 46/53/15 1/9/16
s 5
f 2/2/17 66/77/18 73/86/19 74/87/20
s 6
f 64/73/21 1/1/22 68/79/23 69/80/24
s 7
f 3/3/25 47/54/26 48/55/27 9/15/28
s 8
f 4/4/29 49/56/30 50/58/31 10/16/32
s 9
f 44/50/33 5/5/34 12/18/35 43/49/36
s 10
f 63/72/37 3/3/38 9/15/39 62/70/40
s 11
f 9/15/41 48/55/42 33/39/43 13/19/44
s 12
f 10/16/45 50/58/46 51/59/47 14/20/48
s 13
f 43/49/49 12/18/50 16/22/51 42/48/52
s 14
f 62/70/53 9/15/54 13/19/55 61/69/56
s 15
f 13/19/57 33/39/58 34/40/59 17/23/60
s 16
f 14/20/61 51/59/62 52/60/63 18/24/64
s 17
f 42/48/65 16/22/66 20/26/67 41/47/68
s 18
f 61/69/69 13/19/70 17/23/71 60/68/72
s 19
f 17/23/73 34/40/74 35/41/75 21/27/76
s 20
f 18/24/77 52/60/78 53/61/79 22/28/80
s 21
f 41/47/81 20/26/82 24/30/83 40/46/84
s 22
f 60/68/85 17/23/86 21/27/87 59/67/88
s 23
f 21/27/89 35/41/90 36/42/91 25/31/92
s 20
f 22/28/80 53/61/79 54/62/93 26/32/94
s 24
f 40/46/95 24/30/96 28/34/97 39/45/98
s 25
f 59/67/99 21/27/100 25/31/101 58/66/102
s 26
f 25/31/103 36/42/104 37/43/105 29/35/106
s 27
f 26/32/107 54/62/108 55/63/109 30/36/110
s 28
f 39/45/111 28/34/112 32/38/113 38/44/114
s 29
f 58/66/115 25/31/116 29/35/117 57/65/118
s 15
f 33/39/58 14/20/119 18/24/120 34/40/59
s 19
f 35/41/75 34/40/74 18/24/121 22/28/122
s 23
f 36/42/91 35/41/90 22/28/123 26/32/124
s 26
f 37/43/105 36/42/104 26/32/125 30/36/126
s 2
f 56/64/7 37/43/6 30/36/127 55/63/128
s 28
f 27/33/129 39/45/111 38/44/114 31/37/130
s 24
f 23/29/131 40/46/95 39/45/98 27/33/132
s 21
f 19/25/133 41/47/81 40/46/84 23/29/134
s 17
f 15/21/135 42/48/65 41/47/68 19/25/136
s 13
f 11/17/137 43/49/49 42/48/52 15/21/138
s 9
f 6/6/139 44/50/33 43/49/36 11/17/140
s 3
f 45/51/11 71/83/10 72/84/141 8/8/142
s 4
f 46/53/15 65/75/14 66/76/143 2/10/144
s 1
f 74/87/145 67/78/3 46/52/2 2/2/146
s 7
f 48/55/27 47/54/26 4/4/147 10/16/148
s 11
f 33/39/43 48/55/42 10/16/149 14/20/150
s 8
f 49/56/30 6/6/151 11/17/152 50/58/31
s 12
f 51/59/47 50/58/46 11/17/153 15/21/154
s 16
f 52/60/63 51/59/62 15/21/155 19/25/156
s 20
f 53/61/79 52/60/78 19/25/157 23/29/158
f 54/62/93 53/61/79 23/29/158 27/33/159
s 27
f 55/63/109 54/62/108 27/33/160 31/37/161
s 2
f 38/44/162 56/64/7 55/63/128 31/37/163
f 57/65/8 56/64/7 38/44/162 32/38/164
s 29
f 28/34/165 58/66/115 57/65/118 32/38/166
s 25
f 24/30/167 59/67/99 58/66/102 28/34/168
s 22
f 20/26/169 60/68/85 59/67/88 24/30/170
s 18
f 16/22/171 61/69/69 60/68/72 20/26/172
s 14
f 12/18/173 62/70/53 61/69/56 16/22/174
s 10
f 5/5/175 63/72/37 62/70/40 12/18/176
s 6
f 7/13/177 64/73/21 69/80/24 70/81/178
s 4
f 7/7/179 45/51/180 65/75/14 64/74/13
f 66/76/143 65/75/14 45/51/180 8/8/181
s 5
f 73/86/19 66/77/18 8/11/182 72/85/183
s 1
f 68/79/4 67/78/3 47/54/184 3/3/185
s 6
f 69/80/24 68/79/23 3/3/186 63/71/187
f 70/81/178 69/80/24 63/71/187 5/14/188
s 3
f 5/5/189 44/50/190 71/83/10 70/82/9
f 72/84/141 71/83/10 44/50/190 6/6/191
s 5
f 49/57/192 73/86/19 72/85/183 6/12/193
f 74/87/20 73/86/19 49/57/192 4/4/194
s 1
f 47/54/184 67/78/3 74/87/145 4/4/195
