# This file uses centimeters as units for non-parametric coordinates.

mtllib iceberg6.mtl
g default
v -3.097529 0.000000 4.340563
v 1.242669 0.000000 4.059919
v -3.097529 0.821425 4.340563
v 1.126830 0.708207 4.139579
v -3.097529 0.821425 0.287582
v 1.020044 0.861562 0.430757
v -3.097529 0.000000 0.287582
v 1.074403 0.024954 0.464878
v -1.588160 1.405574 4.833470
v -1.726225 0.825373 -0.191240
v -1.720421 0.000000 -0.205326
v -1.720421 0.000000 4.833470
v -0.776839 0.821425 4.800639
v -0.706515 0.841738 -0.152063
v -0.776839 0.000000 -0.172495
v -0.776839 0.000000 4.800639
v -5.507706 0.541847 2.032169
v 2.866146 1.044973 2.132321
v 2.937722 -0.023702 2.275461
v -0.630826 0.000000 1.878843
v -2.779970 0.000000 1.867997
v -5.507706 0.000000 2.032169
v -5.507706 0.000000 3.089456
v -2.779970 0.000000 2.750696
v -0.630826 0.000000 2.739950
v 2.951313 -0.030675 2.785844
v 2.943615 0.766045 2.669768
v -5.507706 0.541847 3.089456
v -1.545033 0.965125 4.060150
v -0.704786 0.608505 4.217824
v 1.050941 0.534495 3.639059
v 2.230454 0.845171 2.888747
v -3.115372 2.191685 3.500525
v -1.919518 1.479110 3.564665
v -2.678798 2.748228 2.331406
v -4.274104 1.929904 3.040163
v -0.689999 1.893613 3.140766
v -1.194639 2.627612 2.467224
v -2.699469 3.449823 1.444789
v -1.659005 3.113930 1.480735
v -0.706055 2.347265 0.773736
v -1.992081 2.192058 0.644652
v -4.379455 2.213630 2.051663
v -2.785587 1.975177 0.828853
v 0.566462 1.689643 2.942587
v 0.554287 2.269718 2.553098
v 0.597091 2.448389 1.497421
v 0.168533 2.192302 0.947168
v -3.189310 1.971179 3.735601
v -1.934172 1.570647 4.341861
v -4.632790 0.687308 3.120020
v -1.565813 1.768536 0.326215
v -0.673810 1.755084 0.327215
v -2.521160 1.615073 0.650066
v -5.041497 1.492789 1.613742
v 1.615024 2.130566 1.502735
v 0.394564 1.657112 0.611584
v 1.918225 1.495091 2.160033
vt 0.375000 0.000000
vt 0.625000 0.000000
vt 0.375000 0.250000
vt 0.625000 0.250000
vt 0.375000 0.500000
vt 0.625000 0.500000
vt 0.375000 0.750000
vt 0.625000 0.750000
vt 0.375000 1.000000
vt 0.625000 1.000000
vt 0.875000 0.000000
vt 0.875000 0.250000
vt 0.125000 0.000000
vt 0.125000 0.250000
vt 0.438457 0.250000
vt 0.438457 0.500000
vt 0.438457 0.750000
vt 0.438457 0.000000
vt 0.438457 1.000000
vt 0.500875 0.250000
vt 0.500875 0.500000
vt 0.500875 0.750000
vt 0.500875 0.000000
vt 0.500875 1.000000
vt 0.208705 0.250000
vt 0.375000 0.416295
vt 0.438457 0.416295
vt 0.500875 0.416295
vt 0.625000 0.416295
vt 0.791295 0.250000
vt 0.625000 0.833705
vt 0.791295 0.000000
vt 0.500875 0.833705
vt 0.438457 0.833705
vt 0.208705 0.000000
vt 0.375000 0.833705
vt 0.290914 0.000000
vt 0.375000 0.915914
vt 0.438457 0.915914
vt 0.500875 0.915914
vt 0.625000 0.915914
vt 0.709086 0.000000
vt 0.625000 0.334086
vt 0.709086 0.250000
vt 0.500875 0.334086
vt 0.438457 0.334086
vt 0.290914 0.250000
vt 0.375000 0.334086
vt 0.375000 0.250000
vt 0.438457 0.250000
vt 0.375000 0.334086
vt 0.500875 0.250000
vt 0.500875 0.500000
vt 0.438457 0.500000
vt 0.375000 0.500000
vt 0.375000 0.416295
vt 0.625000 0.250000
vt 0.625000 0.334086
vt 0.625000 0.416295
vt 0.625000 0.500000
vt 0.438457 0.250000
vt 0.500875 0.250000
vt 0.625000 0.250000
vt 0.625000 0.334086
vt 0.375000 0.250000
vt 0.438457 0.250000
vt 0.375000 0.334086
vt 0.500875 0.500000
vt 0.438457 0.500000
vt 0.375000 0.500000
vt 0.375000 0.416295
vt 0.625000 0.416295
vt 0.625000 0.500000
vt 0.625000 0.334086
vn -0.326652 0.019400 0.944946
vn -0.204422 0.012141 0.978808
vn -0.200158 0.011887 0.979692
vn -0.326652 0.019400 0.944946
vn 0.070200 0.890260 0.450010
vn 0.017831 0.743760 0.668209
vn -0.080610 0.844697 0.529140
vn -0.245343 0.852567 0.461449
vn -0.333340 0.006890 -0.942781
vn -0.186339 0.012126 -0.982411
vn -0.185671 0.012149 -0.982537
vn -0.333340 0.006890 -0.942782
vn 0.000000 -1.000000 0.000000
vn 0.000000 -1.000000 0.000000
vn 0.000000 -1.000000 -0.000000
vn 0.000000 -1.000000 0.000000
vn 0.612393 0.069326 0.787508
vn 0.749861 0.066585 0.658236
vn 0.813119 0.064117 0.578555
vn 0.612393 0.069326 0.787508
vn -0.645257 0.000000 0.763966
vn -0.655422 0.000000 0.755263
vn -0.460719 0.000000 0.887546
vn -0.460719 0.000000 0.887546
vn 0.076722 0.675429 0.733423
vn 0.131202 0.842448 0.522559
vn 0.235409 -0.001390 -0.971896
vn 0.220004 0.000244 -0.975499
vn -0.003335 -0.999993 0.001578
vn -0.002300 -0.999992 0.003265
vn 0.222965 -0.015522 0.974703
vn 0.195539 -0.013556 0.980602
vn -0.586353 0.000000 -0.810056
vn -0.731413 0.000000 -0.681935
vn -0.724126 0.000000 -0.689668
vn -0.586353 0.000000 -0.810056
vn 0.000000 -1.000000 0.000000
vn 0.000000 -1.000000 0.000000
vn 0.000000 -1.000000 0.000000
vn 0.000000 -1.000000 0.000000
vn -0.000138 -0.999976 -0.006971
vn 0.001513 -0.999972 -0.007304
vn 0.726134 -0.018141 -0.687314
vn 0.773932 -0.012854 -0.633138
vn 0.687789 -0.022043 -0.725576
vn 0.687789 -0.022043 -0.725576
vn -0.329830 0.890052 -0.314672
vn 0.176229 0.971783 -0.156782
vn 0.205537 0.763337 -0.612431
vn -0.195587 0.532668 -0.823414
vn -0.489980 0.870061 0.053970
vn -0.470600 0.363329 -0.804069
vn 0.150411 0.656860 0.738858
vn 0.208420 0.859921 0.465936
vn 0.252085 0.966066 0.056292
vn 0.242920 0.799630 -0.549165
vn 0.322892 -0.010790 -0.946374
vn 0.322892 -0.010790 -0.946374
vn -0.004126 -0.999961 -0.007835
vn 0.002925 -0.999896 -0.014119
vn -0.006512 -0.999978 -0.001567
vn -0.004656 -0.999967 0.006609
vn 0.335776 -0.023610 0.941646
vn 0.335776 -0.023610 0.941646
vn 0.374701 0.915034 0.149374
vn 0.374701 0.915034 0.149374
vn 0.374701 0.915034 0.149374
vn 0.374701 0.915034 0.149374
vn -0.519324 0.323792 0.790861
vn -0.519324 0.323792 0.790861
vn -0.519324 0.323792 0.790861
vn -0.519324 0.323792 0.790861
vn 0.483979 0.803721 -0.346117
vn 0.483979 0.803721 -0.346117
vn 0.483979 0.803721 -0.346117
vn 0.483979 0.803721 -0.346117
vn 0.008291 0.603965 -0.796968
vn 0.008291 0.603964 -0.796968
vn 0.008291 0.603964 -0.796968
vn 0.008291 0.603964 -0.796968
vn -0.322850 0.287581 -0.901701
vn -0.322850 0.287581 -0.901701
vn -0.322850 0.287581 -0.901701
vn -0.322850 0.287581 -0.901701
vn -0.376528 0.559682 -0.738230
vn -0.376527 0.559682 -0.738230
vn -0.376528 0.559682 -0.738230
vn -0.376528 0.559682 -0.738230
vn -0.065480 0.939869 -0.335198
vn -0.065480 0.939869 -0.335198
vn -0.065480 0.939870 -0.335198
vn -0.065480 0.939870 -0.335198
vn -0.120012 0.992769 0.002819
vn -0.120012 0.992769 0.002819
vn -0.120012 0.992769 0.002819
vn -0.120012 0.992769 0.002819
vn 0.287823 0.680600 -0.673752
vn 0.287823 0.680600 -0.673752
vn 0.287823 0.680600 -0.673752
vn 0.287822 0.680600 -0.673752
vn 0.257145 0.589918 -0.765424
vn 0.257145 0.589918 -0.765424
vn 0.257145 0.589918 -0.765424
vn 0.257145 0.589918 -0.765424
vn 0.437384 0.836171 0.330928
vn 0.437384 0.836171 0.330928
vn 0.437384 0.836171 0.330928
vn 0.437384 0.836171 0.330928
vn -0.857356 0.383001 0.343877
vn -0.857356 0.383001 0.343877
vn -0.857356 0.383001 0.343877
vn -0.857356 0.383001 0.343877
vn 0.076978 0.664838 0.743011
vn 0.076978 0.664838 0.743011
vn 0.076978 0.664838 0.743011
vn 0.076978 0.664838 0.743011
vn 0.251251 0.600232 0.759338
vn 0.251251 0.600232 0.759338
vn 0.251251 0.600232 0.759338
vn 0.251251 0.600232 0.759338
vn 0.312219 0.566595 0.762554
vn 0.312219 0.566595 0.762554
vn 0.312219 0.566595 0.762554
vn 0.312219 0.566595 0.762554
vn -0.343198 0.531560 0.774376
vn -0.343198 0.531560 0.774376
vn -0.343198 0.531560 0.774376
vn -0.343198 0.531560 0.774376
vn 0.790273 0.588031 -0.172305
vn 0.790273 0.588031 -0.172305
vn 0.790273 0.588031 -0.172305
vn 0.790272 0.588031 -0.172305
vn -0.533057 0.590867 0.605580
vn -0.533057 0.590867 0.605580
vn -0.533057 0.590867 0.605580
vn -0.533057 0.590867 0.605580
vn 0.017811 0.471509 -0.881681
vn 0.017811 0.471509 -0.881681
vn 0.017811 0.471509 -0.881681
vn 0.017811 0.471509 -0.881681
vn -0.308270 0.530753 -0.789475
vn -0.308270 0.530753 -0.789475
vn -0.308270 0.530753 -0.789475
vn -0.308270 0.530753 -0.789475
vn -0.481032 0.260626 -0.837068
vn -0.481032 0.260626 -0.837068
vn -0.481032 0.260626 -0.837068
vn -0.481032 0.260626 -0.837068
vn 0.551517 0.372084 -0.746580
vn 0.551517 0.372084 -0.746580
vn 0.551517 0.372084 -0.746580
vn 0.551517 0.372084 -0.746580
vn 0.278644 0.428634 -0.859436
vn 0.278644 0.428634 -0.859436
vn 0.278644 0.428634 -0.859436
vn 0.278644 0.428634 -0.859436
vn 0.387909 0.787419 0.479059
vn 0.387909 0.787419 0.479059
vn 0.387909 0.787419 0.479059
vn 0.387909 0.787419 0.479059
vn 0.450746 0.753383 0.478793
vn 0.450746 0.753383 0.478793
vn 0.450746 0.753383 0.478793
vn 0.450746 0.753383 0.478793
vn -0.538635 0.775429 0.329517
vn -0.538635 0.775429 0.329517
vn -0.538635 0.775429 0.329517
vn -0.538635 0.775429 0.329517
s 1
g pCube1
usemtl initialShadingGroup
f 1/1/1 12/18/2 9/15/3 3/3/4
s 2
f 33/49/5 34/50/6 35/46/7 36/51/8
s 3
f 5/5/9 10/16/10 11/17/11 7/7/12
s 4
f 23/38/13 24/39/14 12/19/15 1/9/16
s 5
f 2/2/17 26/42/18 27/44/19 4/4/20
s 6
f 28/47/21 23/37/22 1/1/23 3/3/24
s 2
f 34/61/6 37/62/25 38/45/26 35/46/7
s 3
f 11/17/11 10/16/10 14/21/27 15/22/28
s 4
f 12/19/15 24/39/14 25/40/29 16/24/30
s 1
f 9/15/3 12/18/2 16/23/31 13/20/32
s 6
f 7/13/33 22/35/34 17/25/35 5/14/36
s 4
f 7/7/37 11/17/38 21/34/39 22/36/40
f 20/33/41 21/34/39 11/17/38 15/22/42
s 5
f 18/30/43 19/32/44 8/11/45 6/12/46
s 2
f 39/27/47 40/28/48 41/53/49 42/54/50
f 43/56/51 39/27/47 42/54/50 44/55/52
f 37/62/25 45/63/53 46/64/54 38/45/26
f 41/53/49 40/28/48 47/59/55 48/60/56
s 3
f 15/22/28 14/21/27 6/6/57 8/8/58
s 4
f 19/31/59 20/33/41 15/22/42 8/8/60
f 16/24/30 25/40/29 26/41/61 2/10/62
s 1
f 13/20/32 16/23/31 2/2/63 4/4/64
s 4
f 24/39/14 23/38/13 22/36/40 21/34/39
f 25/40/29 24/39/14 21/34/39 20/33/41
f 26/41/61 25/40/29 20/33/41 19/31/59
s 5
f 18/30/43 27/44/19 26/42/18 19/32/44
s 2
f 40/28/48 38/45/26 46/64/54 47/59/55
f 39/27/47 35/46/7 38/45/26 40/28/48
f 43/56/51 36/51/8 35/46/7 39/27/47
s 6
f 23/37/22 28/47/21 17/25/35 22/35/34
s off
f 49/65/65 50/66/66 34/61/67 33/49/68
f 51/67/69 49/65/70 33/49/71 36/51/72
f 9/15/73 13/20/74 30/52/75 29/50/76
f 53/68/77 52/69/78 42/54/79 41/53/80
f 52/69/81 54/70/82 44/55/83 42/54/84
f 54/70/85 55/71/86 43/56/87 44/55/88
f 13/20/89 4/4/90 31/57/91 30/52/92
f 4/4/93 27/43/94 32/58/95 31/57/96
f 56/72/97 57/73/98 48/60/99 47/59/100
f 57/73/101 53/68/102 41/53/103 48/60/104
f 58/74/105 56/72/106 47/59/107 46/64/108
f 55/71/109 51/67/110 36/51/111 43/56/112
f 29/50/113 30/52/114 37/62/115 34/61/116
f 30/52/117 31/57/118 45/63/119 37/62/120
f 31/57/121 32/58/122 46/64/123 45/63/124
f 3/3/125 9/15/126 50/66/127 49/65/128
f 9/15/129 29/50/130 34/61/131 50/66/132
f 28/48/133 3/3/134 49/65/135 51/67/136
f 14/21/137 10/16/138 52/69/139 53/68/140
f 10/16/141 5/5/142 54/70/143 52/69/144
f 5/5/145 17/26/146 55/71/147 54/70/148
f 18/29/149 6/6/150 57/73/151 56/72/152
f 6/6/153 14/21/154 53/68/155 57/73/156
f 27/43/157 18/29/158 56/72/159 58/74/160
f 32/58/161 27/43/162 58/74/163 46/64/164
f 17/26/165 28/48/166 51/67/167 55/71/168
