# This file uses centimeters as units for non-parametric coordinates.

mtllib iceberg3.mtl
g default
v -6.604541 0.405289 4.809851
v -5.922820 5.171731 5.036181
v -6.433303 5.171731 -2.963889
v 0.382403 4.653149 5.795278
v -1.200152 4.653149 -3.673303
v 1.008923 0.405289 5.896533
v -7.708399 5.171731 1.319942
v -8.390121 0.405289 1.093614
v -1.522043 4.653149 1.195411
v 8.830240 0.405289 0.963674
v 5.730430 0.405289 6.450737
v 7.833351 4.075405 0.963674
v 4.733537 4.075405 5.311528
v -0.402827 4.075405 -4.101992
v 4.767192 4.075405 -2.748159
v 3.634534 0.405289 7.038452
v 2.637645 4.075405 5.899238
v 1.804209 8.824683 5.934051
v 4.768921 7.877405 5.297490
v 7.080110 7.246497 0.789465
v -0.542101 8.994634 1.577014
v 4.221811 7.817459 -2.522415
v -0.401500 9.167118 -3.114376
v 5.786667 7.647120 6.174998
v 8.265058 6.865179 0.545318
v 4.805576 7.532714 -3.726134
v 0.832641 8.996487 -4.325313
v 4.050551 8.727888 7.077280
v -9.200311 1.913170 0.659349
v -6.604541 2.240347 4.809851
v 0.869722 2.240347 5.896533
v 3.634534 2.240347 7.038452
v 5.730430 2.240347 6.450737
v 8.830240 2.240347 0.963674
v 5.764085 2.240347 -3.646923
v 0.594064 2.240347 -5.000755
v 0.272857 2.240347 -3.572045
v -7.925214 1.913170 -3.624482
v 10.708992 2.075420 -0.530795
v 6.629084 2.075420 -5.865158
v 11.744262 0.405289 -0.974222
v 7.664355 0.405289 -6.308583
v 0.207123 2.303609 -6.624078
v -0.669853 0.405289 -7.077280
v -0.647654 2.303609 -5.250114
v -1.524630 0.405289 -5.703313
v -8.216661 1.546059 -5.212815
v -8.882407 0.405289 -5.436858
v -11.744262 0.405289 0.095242
v -11.078517 1.546059 0.319285
v 2.524799 11.640298 5.809300
v 5.489512 10.693021 5.172739
v 7.805455 10.062250 0.720162
v -1.031687 11.810389 1.507712
v 4.951910 10.633352 -2.536265
v 0.328601 11.983009 -3.128227
v -6.187305 -4.091455 0.875639
v 0.744032 -4.091455 4.737958
v -4.870528 -4.091455 3.864091
v 6.511874 -4.091455 0.771146
v 4.225914 -4.091455 5.183626
v 2.680293 -4.091455 5.656242
v 5.652091 -4.091455 -5.076917
v 8.660823 -4.091455 -0.787233
v -0.493984 -4.091455 -5.695070
v -1.124341 -4.091455 -4.590181
v -6.550342 -4.091455 -4.375909
v -8.660822 -4.091455 0.072788
v -3.748234 -10.471348 0.521488
v 0.450731 -10.471348 2.855580
v -2.950541 -10.471348 2.327482
v 3.944857 -10.471348 0.458340
v 2.560035 -10.471348 3.124910
v 1.623707 -10.471348 3.410519
v 3.424005 -10.471348 -3.075789
v 5.246678 -10.471348 -0.483426
v -0.299252 -10.471348 -3.449351
v -0.681119 -10.471348 -2.781641
v -3.968159 -10.471348 -2.652151
v -5.246676 -10.471348 0.036305
v -0.785094 -14.755298 0.084880
v -0.003455 -15.889961 0.073342
v 0.094410 -14.755298 0.534931
v -0.618015 -14.755298 0.433104
v 0.533366 -15.411486 0.058442
v 0.336983 -15.411486 0.367624
v -0.276094 -15.411486 -0.267591
v 0.019232 -15.889961 -0.269805
v 0.448950 -15.481324 -0.194787
v 0.945620 -14.863457 0.072704
v 0.536222 -14.755298 0.586862
v 0.149367 -15.310827 -0.370501
v 0.296358 -15.333956 -0.275084
v 0.340098 -14.755298 0.641932
v 0.717184 -14.755298 -0.608736
v 1.098959 -14.755298 -0.108885
v -0.062680 -14.755298 -0.680763
v -0.142665 -14.755298 -0.552018
v -0.831163 -14.755298 -0.527050
v -1.098957 -14.755298 -0.008672
vt 0.717745 0.604629
vt 0.319555 0.534394
vt 0.386369 0.422606
vt 0.669223 0.486557
vt 0.061654 0.917646
vt 0.777885 0.413798
vt 0.823116 0.274637
vt 0.093863 0.977083
vt 0.443345 0.895721
vt 0.578735 0.851660
vt 0.630457 0.747794
vt 0.463177 0.743016
vt 0.366001 0.592927
vt 0.648808 0.642577
vt 0.315811 0.672670
vt 0.341056 0.761086
vt 0.314755 0.768864
vt 0.276708 0.677017
vt 0.653897 0.789890
vt 0.132936 0.811790
vt 0.168900 0.789631
vt 0.228858 0.820913
vt 0.142204 0.879156
vt 0.425657 0.868170
vt 0.402931 0.907084
vt 0.348842 0.834706
vt 0.370587 0.816936
vt 0.462582 0.742839
vt 0.462757 0.742404
vt 0.263439 0.615093
vt 0.313851 0.634287
vt 0.463994 0.743424
vt 0.463270 0.743052
vt 0.462842 0.743150
vt 0.232666 0.876811
vt 0.182151 0.920394
vt 0.358586 0.749987
vt 0.340529 0.674436
vt 0.260503 0.800166
vt 0.190267 0.738808
vt 0.207013 0.716996
vt 0.278034 0.793134
vt 0.146366 0.940688
vt 0.282336 0.869966
vt 0.303531 0.866559
vt 0.315080 0.934789
vt 0.463288 0.743669
vt 0.462956 0.743478
vt 0.344900 0.643137
vt 0.123298 0.722896
vt 0.164262 0.693575
vt 0.112969 0.887666
vt 0.388659 0.809308
vt 0.359668 0.767495
vt 0.368081 0.765348
vt 0.393710 0.797501
vt 0.453242 0.837151
vt 0.438940 0.851440
vt 0.469568 0.840159
vt 0.454199 0.865386
vt 0.562890 0.840073
vt 0.560781 0.827113
vt 0.614280 0.784364
vt 0.626845 0.789884
vt 0.327049 0.962857
vt 0.241028 0.962954
vt 0.039482 0.852101
vt 0.094119 0.824238
vt 0.463070 0.741436
vt 0.464981 0.741814
vt 0.465581 0.742639
vt 0.466551 0.743128
vt 0.447903 0.756311
vt 0.461718 0.744386
vt 0.462315 0.741253
vt 0.465772 0.744388
vt 0.137482 0.632391
vt 0.715470 0.113026
vt 0.578955 0.267855
vt 0.438509 0.745077
vt 0.228574 0.552716
vt 0.461803 0.741373
vt 0.460512 0.743112
vt 0.292531 0.956323
vt 0.493298 0.745100
vt 0.468628 0.760345
vt 0.399736 0.926859
vt 0.465281 0.761450
vt 0.108972 0.777017
vt 0.461143 0.742758
vt 0.432586 0.674776
vt 0.533173 0.694121
vt 0.547873 0.730731
vt 0.397917 0.735262
vt 0.399798 0.692674
vt 0.409884 0.681226
vt 0.484982 0.757395
vt 0.421199 0.780670
vt 0.397434 0.753841
vt 0.462922 0.799248
vt 0.472701 0.797965
vt 0.522307 0.790583
vt 0.464076 0.744564
vt 0.556493 0.756946
vt 0.457477 0.724873
vt 0.480884 0.729957
vt 0.487586 0.738921
vt 0.440967 0.739102
vt 0.445793 0.726478
vt 0.450147 0.724524
vt 0.463788 0.744776
vt 0.954057 0.275161
vt 0.909271 0.467003
vt 0.762948 0.011150
vn -0.137723 -0.012267 0.990395
vn -0.137773 -0.012197 0.990389
vn -0.133421 -0.018337 0.990890
vn -0.133421 -0.018337 0.990890
vn 0.084579 0.995710 -0.037530
vn 0.084579 0.995710 -0.037530
vn 0.087870 0.996051 -0.012684
vn 0.088320 0.996049 -0.009252
vn -0.047224 0.098195 -0.994046
vn -0.047224 0.098195 -0.994046
vn -0.047224 0.098195 -0.994046
vn -0.047224 0.098195 -0.994046
vn -0.657488 -0.531325 0.534231
vn -0.397092 -0.790654 0.466030
vn -0.196832 -0.455609 0.868146
vn -0.380080 -0.535936 0.753865
vn 0.828648 0.267342 0.491804
vn 0.881203 0.346521 0.321566
vn 0.991843 0.127407 0.003789
vn 0.853730 0.095692 0.511847
vn -0.946290 0.304798 0.107864
vn -0.869626 0.117875 0.479433
vn -0.853676 0.233037 0.465759
vn -0.923461 0.359986 0.132776
vn 0.212576 0.973751 -0.081367
vn 0.212576 0.973751 -0.081367
vn 0.218949 0.975575 -0.017764
vn 0.219795 0.975508 -0.008581
vn 0.216125 0.521639 -0.825338
vn 0.204473 0.074489 -0.976034
vn 0.208239 0.128174 -0.969643
vn 0.216125 0.521639 -0.825338
vn 0.704261 -0.609933 0.363317
vn 0.382553 -0.529516 0.757144
vn 0.278434 -0.003866 0.960448
vn 0.250475 0.373346 0.893239
vn 0.255928 0.318597 0.912687
vn 0.278163 0.016820 0.960387
vn -0.858404 0.444813 -0.255507
vn -0.858404 0.444813 -0.255507
vn -0.589353 -0.567155 -0.575324
vn -0.327405 -0.819575 -0.470216
vn 0.718950 -0.553845 -0.419960
vn 0.695609 0.503406 -0.512554
vn 0.777916 0.071390 -0.624300
vn 0.224685 0.973189 0.049196
vn 0.224685 0.973189 0.049196
vn 0.091597 0.995668 0.015982
vn 0.091597 0.995668 0.015982
vn 0.697380 -0.553625 0.455149
vn 0.616631 -0.578439 0.534018
vn 0.278656 0.959445 -0.042620
vn 0.280268 0.949225 -0.142902
vn 0.278589 0.953254 -0.117027
vn 0.279683 0.958958 -0.046662
vn -0.831121 -0.413429 -0.371907
vn -0.938291 0.185401 -0.291951
vn -0.744527 -0.097068 -0.660498
vn -0.831121 -0.413429 -0.371907
vn 0.304425 0.951234 0.049799
vn 0.297596 0.954538 -0.017156
vn 0.297741 0.954515 -0.015859
vn 0.304425 0.951234 0.049799
vn 0.116397 -0.422944 -0.898649
vn 0.424475 -0.502856 -0.752965
vn -0.712538 0.159626 0.683234
vn -0.297660 0.104703 0.948913
vn -0.326168 0.069058 0.942786
vn -0.251849 0.050359 0.966455
vn -0.154664 -0.498044 0.853247
vn 0.286535 0.904293 -0.316469
vn 0.286535 0.904293 -0.316469
vn -0.960101 0.217138 0.176231
vn -0.749704 0.100836 0.654046
vn -0.960795 0.155142 0.229792
vn -0.968411 0.149519 -0.199559
vn 0.841515 -0.230602 0.488544
vn 0.841515 -0.230602 0.488544
vn 0.180429 -0.166426 -0.969406
vn 0.180429 -0.166426 -0.969406
vn -0.585427 0.154522 -0.795863
vn -0.274259 -0.055167 0.960072
vn 0.268395 -0.307124 0.913038
vn 0.268395 -0.307124 0.913038
vn 0.750866 -0.197379 -0.630271
vn 0.750866 -0.197379 -0.630271
vn -0.861728 -0.145714 0.485996
vn -0.861728 -0.145714 0.485996
vn -0.402618 -0.268045 0.875243
vn -0.222192 -0.164751 0.960983
vn -0.083211 -0.196422 0.976982
vn 0.741146 -0.291070 0.604963
vn 0.745173 -0.273188 0.608347
vn 0.664866 0.547145 -0.508513
vn 0.664866 0.547145 -0.508513
vn 0.664866 0.547145 -0.508513
vn 0.664866 0.547145 -0.508513
vn 0.103565 0.246699 -0.963543
vn 0.103565 0.246699 -0.963543
vn 0.103565 0.246699 -0.963542
vn 0.103565 0.246699 -0.963542
vn -0.753833 0.460214 -0.468977
vn -0.753833 0.460214 -0.468977
vn -0.753833 0.460214 -0.468977
vn -0.753833 0.460214 -0.468977
vn -0.031588 0.232649 -0.972048
vn -0.031588 0.232649 -0.972048
vn -0.031588 0.232649 -0.972048
vn -0.031588 0.232649 -0.972048
vn -0.758729 0.519876 -0.392504
vn -0.758729 0.519876 -0.392504
vn -0.758729 0.519876 -0.392504
vn -0.758729 0.519876 -0.392504
vn 0.046247 0.998292 -0.035703
vn 0.060783 0.997195 -0.043676
vn 0.060783 0.997195 -0.043676
vn 0.041652 0.998581 -0.033183
vn 0.582414 0.069560 0.809910
vn 0.582414 0.069560 0.809910
vn 0.335130 -0.620741 -0.708779
vn 0.713348 -0.695799 -0.083654
vn 0.028039 0.999482 -0.015803
vn 0.026188 0.999471 -0.019274
vn -0.081971 -0.541285 -0.836834
vn -0.058050 0.996544 -0.059413
vn -0.053637 0.996984 -0.056093
vn -0.162973 -0.465156 -0.870098
vn -0.147908 0.985520 -0.082913
vn -0.107169 0.991415 -0.074910
vn -0.363226 -0.615000 -0.699887
vn -0.709597 -0.695069 0.115547
vn -0.251472 0.062942 0.965816
vn -0.251472 0.062942 0.965816
vn -0.251472 0.062942 0.965816
vn -0.251472 0.062942 0.965816
vn -0.237845 0.966117 -0.100240
vn -0.237845 0.966117 -0.100240
vn 0.206977 -0.009626 0.978298
vn 0.206977 -0.009626 0.978298
vn 0.206977 -0.009626 0.978298
vn 0.206977 -0.009626 0.978298
vn 0.857835 -0.204007 0.471699
vn 0.857835 -0.204007 0.471699
vn 0.857835 -0.204007 0.471699
vn 0.857835 -0.204007 0.471699
vn -0.824117 0.053238 0.563912
vn -0.974829 0.050048 0.217265
vn 0.722691 -0.196556 -0.662634
vn 0.722691 -0.196556 -0.662634
vn 0.722691 -0.196556 -0.662634
vn 0.722691 -0.196556 -0.662634
vn 0.116815 -0.035170 -0.992531
vn 0.116815 -0.035170 -0.992531
vn 0.116815 -0.035170 -0.992531
vn 0.116815 -0.035170 -0.992531
vn -0.986747 0.039819 -0.157307
vn -0.439718 -0.336657 0.832653
vn -0.218190 -0.251025 0.943069
vn -0.598538 -0.326799 0.731406
vn -0.667563 -0.323575 0.670566
vn 0.711000 -0.396012 0.581079
vn 0.744145 -0.362021 0.561417
vn -0.122381 -0.290550 0.949001
vn 0.464524 -0.430832 -0.773693
vn 0.819300 -0.543728 -0.181951
vn 0.845680 -0.518725 -0.125501
vn 0.412888 -0.405694 -0.815436
vn -0.049211 -0.301292 -0.952261
vn -0.064092 -0.316440 -0.946445
vn -0.203229 -0.252952 -0.945893
vn -0.203230 -0.266972 -0.942032
vn -0.531137 -0.455121 -0.714674
vn -0.457093 -0.412517 -0.787969
vn -0.833473 -0.551308 -0.037169
vn -0.851941 -0.518976 0.069722
vn -0.441889 -0.378283 0.813410
vn -0.215274 -0.312831 0.925091
vn -0.675986 -0.351445 0.647711
vn 0.708900 -0.421338 0.565628
vn 0.746972 -0.386680 0.540844
vn -0.132428 -0.355376 0.925295
vn 0.847614 -0.517886 -0.115516
vn 0.409527 -0.451882 -0.792521
vn -0.073138 -0.383167 -0.920779
vn -0.194723 -0.334183 -0.922174
vn -0.451938 -0.449341 -0.770613
vn -0.851416 -0.517979 0.082392
s 1
g iceberg3
usemtl lambert7SG
f 30/1/1 31/2/2 4/3/3 2/4/4
s 2
f 2/4/5 4/3/6 9/79/7 7/6/8
s off
f 3/7/9 5/78/10 37/114/11 38/112/12
s 1
f 81/71/13 82/12/14 83/69/15 84/70/16
f 33/15/17 34/16/18 12/17/19 13/18/20
s 5
f 29/113/21 30/1/22 2/4/23 7/6/24
s 6
f 51/20/25 52/21/26 53/22/27 54/23/28
s 7
f 36/24/29 14/25/30 15/26/31 35/27/32
s 1
f 83/69/15 82/12/14 85/28/33 86/29/34
f 17/30/35 32/31/36 33/15/37 13/18/38
s 5
f 38/112/39 29/113/21 7/6/24 3/7/40
s 1
f 87/32/41 88/33/42 82/12/14 81/71/13
f 85/28/33 82/12/14 88/33/42 89/34/43
f 12/17/19 34/16/18 35/27/44 15/26/45
s 6
f 54/23/28 53/22/27 55/35/46 56/36/47
s 2
f 7/6/8 9/79/7 5/78/48 3/7/49
s 1
f 86/29/34 85/28/33 90/90/50 91/82/51
s 9
f 20/39/52 19/40/53 24/41/54 25/42/55
s 1
f 37/9/56 5/87/57 14/25/58 36/24/59
s 9
f 23/84/60 22/44/61 26/45/62 27/46/63
s 1
f 89/34/43 88/33/42 92/47/64 93/48/65
f 4/81/66 31/2/67 32/31/68 17/30/69
f 83/69/15 86/29/34 91/82/51 94/75/70
s 9
f 19/40/53 18/50/71 28/51/72 24/41/54
s 1
f 85/28/33 89/34/43 93/48/65 90/90/50
s 9
f 22/44/61 20/39/52 25/42/55 26/45/62
s 1
f 9/5/73 4/67/66 18/68/74 21/52/75
f 5/8/57 9/5/73 21/52/75 23/43/76
f 13/18/20 12/17/19 25/42/77 24/41/78
s 7
f 15/26/31 14/25/30 27/46/79 26/45/80
s 1
f 14/25/58 5/87/57 23/65/76 27/46/81
f 4/81/66 17/30/69 28/51/82 18/77/74
f 17/30/35 13/18/38 24/41/83 28/51/84
f 12/17/19 15/26/45 26/45/85 25/42/86
s 5
f 8/11/87 1/14/88 30/1/22 29/19/21
s 1
f 1/14/89 6/13/90 31/2/2 30/1/1
f 32/31/68 31/2/67 6/13/90 16/49/91
f 33/15/37 32/31/36 16/49/91 11/38/92
f 11/38/92 10/37/93 34/16/18 33/15/17
s off
f 40/53/94 39/54/95 41/55/96 42/56/97
f 44/57/98 43/58/99 40/53/100 42/56/101
f 46/59/102 45/60/103 43/58/104 44/57/105
f 47/61/106 45/60/107 46/59/108 48/62/109
f 48/62/110 49/63/111 50/64/112 47/61/113
s 12
f 35/27/114 34/16/115 39/54/116 40/53/117
s 1
f 34/16/18 10/37/93 41/55/118 39/54/119
f 90/90/50 93/48/65 95/74/120 96/83/121
s 12
f 36/24/122 35/27/114 40/53/117 43/58/123
s 1
f 93/48/65 92/47/64 97/111/124 95/74/120
s 12
f 37/9/125 36/24/122 43/58/123 45/60/126
s 1
f 92/47/64 88/33/42 98/103/127 97/111/124
s 12
f 38/10/128 37/9/125 45/60/126 47/61/129
s 1
f 88/33/42 87/32/41 99/76/130 98/103/127
f 87/32/41 81/71/13 100/72/131 99/76/130
s off
f 8/11/132 29/19/133 50/64/134 49/63/135
s 12
f 29/19/136 38/10/128 47/61/129 50/64/137
s off
f 18/50/138 19/40/139 52/21/140 51/89/141
f 19/40/142 20/39/143 53/22/144 52/21/145
s 1
f 21/52/75 18/68/74 51/20/146 54/23/147
s off
f 20/39/148 22/44/149 55/35/150 53/22/151
f 22/44/152 23/84/153 56/66/154 55/35/155
s 1
f 23/43/76 21/52/75 54/23/147 56/36/156
f 6/13/90 1/14/89 59/92/157 58/91/158
f 1/14/89 8/11/159 57/93/160 59/92/157
f 10/37/93 11/38/92 61/95/161 60/94/162
f 11/38/92 16/49/91 62/96/163 61/95/161
f 16/49/91 6/13/90 58/91/158 62/96/163
f 42/56/164 41/55/165 64/99/166 63/98/167
f 41/55/165 10/37/93 60/94/162 64/99/166
f 44/57/168 42/56/164 63/98/167 65/100/169
f 46/59/170 44/57/168 65/100/169 66/101/171
f 48/62/172 46/59/170 66/101/171 67/102/173
f 8/11/159 49/63/174 68/104/175 57/93/160
f 49/63/174 48/62/172 67/102/173 68/104/175
f 58/91/158 59/92/157 71/106/176 70/105/177
f 59/92/157 57/93/160 69/107/178 71/106/176
f 60/94/162 61/95/161 73/109/179 72/108/180
f 61/95/161 62/96/163 74/110/181 73/109/179
f 62/96/163 58/91/158 70/105/177 74/110/181
f 63/98/167 64/99/166 76/80/182 75/73/183
f 64/99/166 60/94/162 72/108/180 76/80/182
f 65/100/169 63/98/167 75/73/183 77/88/184
f 66/101/171 65/100/169 77/88/184 78/86/185
f 67/102/173 66/101/171 78/86/185 79/97/186
f 57/93/160 68/104/175 80/85/187 69/107/178
f 68/104/175 67/102/173 79/97/186 80/85/187
f 70/105/177 71/106/176 84/70/16 83/69/15
f 71/106/176 69/107/178 81/71/13 84/70/16
f 72/108/180 73/109/179 91/82/51 90/90/50
f 73/109/179 74/110/181 94/75/70 91/82/51
f 74/110/181 70/105/177 83/69/15 94/75/70
f 75/73/183 76/80/182 96/83/121 95/74/120
f 76/80/182 72/108/180 90/90/50 96/83/121
f 77/88/184 75/73/183 95/74/120 97/111/124
f 78/86/185 77/88/184 97/111/124 98/103/127
f 79/97/186 78/86/185 98/103/127 99/76/130
f 69/107/178 80/85/187 100/72/131 81/71/13
f 80/85/187 79/97/186 99/76/130 100/72/131
